:FULLY-SPECIFIED
:FORCE-ALL-JOINTS-BE-3DOF
:DEGREES
1
root 0.0917792 17.1113 -36.2281 4.68854 2.37172 2.1196
lfemur -7.00586 -1.73986 -27.8547
ltibia 41.1896 0 0
lfoot -18.4606 0.563554 0
ltoes -11.2184 0 0
rfemur -36.1767 -4.01455 16.7326
rtibia 108.236 0 0
rfoot 12.8687 -5.27186 0
rtoes 8.52629 0 0
lowerback 19.257 -1.22373 -5.06989
upperback 1.70725 -2.88959 -2.17631
thorax -8.80689 -1.22956 1.27549
lowerneck -3.02729 -0.130267 -1.32286
upperneck -12.924 0.233441 4.10486
head -3.67612 0.0262048 1.58301
lclavicle -9.54166e-15 -7.15625e-15 0
lhumerus -10.0203 -20.6355 82.8192
lradius 113.865 0 0
lwrist 27.5011 0 0
lhand -37.1915 8.38258 0
lfingers 7.12502 0 0
lthumb -10.2594 38.1124 0
rclavicle -9.54166e-15 -7.15625e-15 0
rhumerus -54.6221 8.39899 -88.3047
rradius 81.0784 0 0
rwrist -0.792659 0 0
rhand -48.8742 40.2847 0
rfingers 7.12502 0 0
rthumb -21.5082 11.4588 0
2
root 0.102778 17.1157 -35.6909 4.6611 2.08067 1.93896
lfemur -7.53327 -1.40704 -27.3268
ltibia 42.9579 -0 0
lfoot -17.6264 0.441077 -0.036735
ltoes -11.1628 0 0
rfemur -35.6774 -3.76185 17.0774
rtibia 106.604 -0 0
rfoot 12.1536 -5.2989 0.00689365
rtoes 8.10305 -0 0
lowerback 19.2367 -1.21467 -4.84626
upperback 1.71832 -2.81967 -2.06895
thorax -8.78447 -1.20272 1.24643
lowerneck -2.98566 -0.0540168 -1.2691
upperneck -13.0114 0.318512 3.90863
head -3.7003 0.0715914 1.50745
lclavicle -1.46107e-14 1.03368e-14 0
lhumerus -10.9983 -20.5123 83.2311
lradius 113.623 -0 0
lwrist 27.6627 0 0
lhand -37.2501 8.52206 -0.00285375
lfingers 7.12502 -0 0
lthumb -10.3159 38.2488 -0.00269041
rclavicle -1.46107e-14 1.03368e-14 0
rhumerus -54.039 8.50417 -88.3253
rradius 81.5751 -0 0
rwrist -0.8424 0 0
rhand -48.7703 40.2315 -0.00193016
rfingers 7.12502 -0 0
rthumb -21.4083 11.3955 -0.00220828
3
root 0.113777 17.1201 -35.1536 4.63458 1.78953 1.7585
lfemur -8.05752 -1.06939 -26.8021
ltibia 44.7262 -0 0
lfoot -16.792 0.318078 -0.0716827
ltoes -11.1071 0 0
rfemur -35.1768 -3.51216 17.4243
rtibia 104.973 -0 0
rfoot 11.4385 -5.32602 0.0134493
rtoes 7.67981 -0 0
lowerback 19.2164 -1.20553 -4.62263
upperback 1.72952 -2.74978 -1.96159
thorax -8.76206 -1.17586 1.21739
lowerneck -2.94395 0.0221943 -1.21529
upperneck -13.0991 0.403283 3.71226
head -3.72454 0.116946 1.43187
lclavicle -1.46107e-14 1.03368e-14 0
lhumerus -11.9745 -20.3825 83.6404
lradius 113.38 -0 0
lwrist 27.8244 0 0
lhand -37.3086 8.66155 -0.00556494
lfingers 7.12502 -0 0
lthumb -10.3724 38.3851 -0.0052464
rclavicle -1.46107e-14 1.03368e-14 0
rhumerus -53.4559 8.60956 -88.3448
rradius 82.0718 -0 0
rwrist -0.892142 0 0
rhand -48.6664 40.1783 -0.00376386
rfingers 7.12502 -0 0
rthumb -21.3084 11.3322 -0.00430621
4
root 0.124776 17.1244 -34.6164 4.60898 1.49832 1.57819
lfemur -8.57862 -0.72697 -26.2805
ltibia 46.4945 -0 0
lfoot -15.9576 0.194584 -0.104836
ltoes -11.0515 0 0
rfemur -34.6748 -3.26551 17.7732
rtibia 103.341 -0 0
rfoot 10.7234 -5.35323 0.0196659
rtoes 7.25658 -0 0
lowerback 19.1961 -1.19632 -4.399
upperback 1.74084 -2.67991 -1.85422
thorax -8.73966 -1.14899 1.18836
lowerneck -2.90218 0.0983661 -1.16143
upperneck -13.1871 0.487753 3.51577
head -3.74884 0.162269 1.35627
lclavicle -1.46107e-14 1.03368e-14 0
lhumerus -12.9489 -20.2462 84.0469
lradius 113.138 -0 0
lwrist 27.986 0 0
lhand -37.3672 8.80104 -0.00813355
lfingers 7.12502 -0 0
lthumb -10.4288 38.5215 -0.00766797
rclavicle -1.46107e-14 1.03368e-14 0
rhumerus -52.8726 8.71513 -88.3632
rradius 82.5685 -0 0
rwrist -0.941883 0 0
rhand -48.5624 40.1252 -0.00550109
rfingers 7.12502 -0 0
rthumb -21.2085 11.2689 -0.00629377
5
root 0.135775 17.1288 -34.0791 4.58431 1.20702 1.39804
lfemur -9.09654 -0.379836 -25.7621
ltibia 48.2628 -0 0
lfoot -15.1232 0.0706193 -0.136187
ltoes -10.9959 0 0
rfemur -34.1714 -3.02193 18.1242
rtibia 101.71 -0 0
rfoot 10.0083 -5.38051 0.0255425
rtoes 6.83334 -0 0
lowerback 19.1759 -1.18702 -4.17538
upperback 1.7523 -2.61005 -1.74684
thorax -8.71728 -1.12211 1.15933
lowerneck -2.86033 0.174499 -1.1075
upperneck -13.2754 0.57192 3.31914
head -3.77319 0.207559 1.28065
lclavicle -1.46107e-14 1.03368e-14 0
lhumerus -13.9213 -20.1035 84.4505
lradius 112.896 -0 0
lwrist 28.1476 0 0
lhand -37.4258 8.94053 -0.0105596
lfingers 7.12502 -0 0
lthumb -10.4853 38.6578 -0.0099551
rclavicle -1.46107e-14 1.03368e-14 0
rhumerus -52.2891 8.82089 -88.3805
rradius 83.0652 -0 0
rwrist -0.991625 0 0
rhand -48.4585 40.072 -0.00714185
rfingers 7.12502 -0 0
rthumb -21.1085 11.2056 -0.00817096
